<svg xmlns="http://www.w3.org/2000/svg" xmlns:xlink="http://www.w3.org/1999/xlink" width="500" zoomAndPan="magnify" viewBox="0 0 375 374.999991" height="500" preserveAspectRatio="xMidYMid meet" version="1.2"><defs><clipPath id="269c8ec7ee"><path d="M 89.0625 75 L 286 75 L 286 300 L 89.0625 300 Z M 89.0625 75 "/></clipPath></defs><g id="92cc12c29f"><path style=" stroke:none;fill-rule:nonzero;fill:#ffffff;fill-opacity:1;" d="M 139.289062 270.621094 C 135.386719 270.621094 131.484375 269.628906 127.90625 267.632812 L 123.023438 264.894531 C 119.65625 263.011719 118.449219 258.753906 120.335938 255.363281 C 122.210938 252.003906 126.480469 250.78125 129.867188 252.675781 L 134.742188 255.402344 C 137.691406 257.035156 141.070312 257.015625 144.003906 255.296875 C 146.945312 253.5625 148.644531 250.601562 148.644531 247.167969 L 148.644531 146.871094 C 148.644531 143.003906 151.78125 139.867188 155.644531 139.867188 C 159.511719 139.867188 162.648438 143.003906 162.648438 146.871094 L 162.648438 247.167969 C 162.648438 255.570312 158.324219 263.121094 151.089844 267.371094 C 147.410156 269.527344 143.347656 270.621094 139.289062 270.621094 Z M 139.289062 270.621094 "/><g clip-rule="nonzero" clip-path="url(#269c8ec7ee)"><path style=" stroke:none;fill-rule:nonzero;fill:#ffffff;fill-opacity:1;" d="M 187.519531 299.992188 C 184.597656 299.992188 181.675781 299.234375 179.078125 297.710938 L 156.644531 284.578125 C 153.3125 282.617188 152.179688 278.332031 154.132812 274.996094 C 156.085938 271.65625 160.371094 270.542969 163.710938 272.488281 L 186.144531 285.621094 C 186.988281 286.125 187.996094 286.136719 188.871094 285.621094 L 270.085938 238.0625 C 270.972656 237.550781 271.523438 236.578125 271.523438 235.496094 L 271.523438 140.410156 C 271.523438 139.34375 270.964844 138.355469 270.070312 137.832031 L 188.890625 90.3125 C 188.03125 89.816406 187.003906 89.808594 186.183594 90.300781 L 104.886719 137.851562 C 104.015625 138.363281 103.476562 139.335938 103.476562 140.390625 L 103.476562 235.496094 C 103.476562 236.542969 104.035156 237.550781 104.894531 238.046875 L 129.988281 252.742188 C 133.324219 254.703125 134.453125 258.988281 132.5 262.320312 C 130.539062 265.644531 126.253906 266.761719 122.921875 264.832031 L 97.828125 250.136719 C 92.671875 247.121094 89.472656 241.5 89.472656 235.496094 L 89.472656 140.410156 C 89.453125 134.414062 92.65625 128.792969 97.808594 125.769531 L 179.070312 78.230469 C 184.277344 75.175781 190.738281 75.167969 195.96875 78.222656 L 277.164062 125.75 C 282.335938 128.792969 285.527344 134.414062 285.527344 140.410156 L 285.527344 235.515625 C 285.511719 241.519531 282.316406 247.101562 277.191406 250.136719 L 195.949219 297.710938 C 193.355469 299.234375 190.429688 299.992188 187.519531 299.992188 Z M 187.519531 299.992188 "/></g><path style=" stroke:none;fill-rule:nonzero;fill:#ffffff;fill-opacity:1;" d="M 210.261719 236.066406 C 189.273438 236.066406 166.847656 228.832031 166.847656 208.515625 C 166.847656 204.652344 169.984375 201.511719 173.851562 201.511719 C 177.714844 201.511719 180.851562 204.652344 180.851562 208.515625 C 180.851562 219.214844 199.339844 222.0625 210.261719 222.0625 C 229.773438 222.0625 239.671875 219.960938 239.671875 208.515625 C 239.671875 202.765625 232.648438 200.515625 215.40625 196.40625 L 208.570312 194.753906 C 206.480469 194.242188 204.269531 193.753906 202 193.25 C 187.164062 189.972656 166.839844 185.503906 166.839844 167.410156 C 166.839844 147.09375 189.265625 139.859375 210.253906 139.859375 C 231.238281 139.859375 253.664062 147.09375 253.664062 167.410156 C 253.664062 171.273438 250.527344 174.410156 246.664062 174.410156 C 242.796875 174.410156 239.660156 171.273438 239.660156 167.410156 C 239.660156 156.710938 221.175781 153.863281 210.253906 153.863281 C 199.328125 153.863281 180.84375 156.71875 180.84375 167.410156 C 180.84375 173.738281 191.320312 176.546875 205.015625 179.574219 C 207.414062 180.105469 209.746094 180.621094 211.941406 181.171875 L 218.644531 182.785156 C 236.664062 187.070312 253.675781 191.121094 253.675781 208.515625 C 253.675781 236.066406 224.347656 236.066406 210.261719 236.066406 Z M 210.261719 236.066406 "/></g></svg>