<svg xmlns="http://www.w3.org/2000/svg" xmlns:xlink="http://www.w3.org/1999/xlink" width="500" zoomAndPan="magnify" viewBox="0 0 375 374.999991" height="500" preserveAspectRatio="xMidYMid meet" version="1.2"><defs><clipPath id="2b339547d4"><path d="M 136.3125 75 L 239 75 L 239 269 L 136.3125 269 Z M 136.3125 75 "/></clipPath></defs><g id="2f6e227b94"><g clip-rule="nonzero" clip-path="url(#2b339547d4)"><path style=" stroke:none;fill-rule:nonzero;fill:#ffffff;fill-opacity:1;" d="M 238.636719 197.726562 C 238.636719 131.25 187.5 75 187.5 75 C 187.5 75 136.363281 131.25 136.363281 197.726562 C 136.363281 252.433594 170.972656 265.574219 183.234375 268.515625 L 187.5 110.796875 L 191.765625 268.515625 C 204.027344 265.574219 238.636719 252.433594 238.636719 197.726562 Z M 238.636719 197.726562 "/></g><path style=" stroke:none;fill-rule:nonzero;fill:#ffffff;fill-opacity:1;" d="M 183.234375 268.515625 L 182.386719 300 L 192.613281 300 L 191.765625 268.515625 C 189.125 269.148438 187.5 269.316406 187.5 269.316406 C 187.5 269.316406 185.875 269.148438 183.234375 268.515625 Z M 183.234375 268.515625 "/></g></svg>