<svg xmlns="http://www.w3.org/2000/svg" xmlns:xlink="http://www.w3.org/1999/xlink" width="500" zoomAndPan="magnify" viewBox="0 0 375 374.999991" height="500" preserveAspectRatio="xMidYMid meet" version="1.2"><defs><clipPath id="25bdae235e"><path d="M 67.019531 83 L 307.769531 83 L 307.769531 292 L 67.019531 292 Z M 67.019531 83 "/></clipPath></defs><g id="d6f75bcca9"><path style=" stroke:none;fill-rule:nonzero;fill:#ffffff;fill-opacity:1;" d="M 208.890625 187.207031 C 208.890625 175.695312 199.265625 166.363281 187.394531 166.363281 C 175.519531 166.363281 165.894531 175.695312 165.894531 187.207031 C 165.894531 198.722656 175.519531 208.054688 187.394531 208.054688 C 199.265625 208.054688 208.890625 198.722656 208.890625 187.207031 Z M 208.890625 187.207031 "/><g clip-rule="nonzero" clip-path="url(#25bdae235e)"><path style=" stroke:none;fill-rule:evenodd;fill:#ffffff;fill-opacity:1;" d="M 257.214844 148.511719 C 261.753906 130.621094 267.460938 97.453125 247.34375 86.207031 C 227.320312 75.011719 201.261719 96.464844 187.503906 109.34375 C 173.785156 96.59375 146.996094 75.230469 126.898438 86.511719 C 106.882812 97.746094 113.054688 130.367188 117.695312 148.367188 C 99.023438 153.507812 67.019531 164.582031 67.019531 187.207031 C 67.019531 209.769531 98.992188 221.820312 117.550781 226.957031 C 112.894531 245.054688 107.03125 277.207031 127.070312 288.417969 C 147.246094 299.695312 173.953125 278.84375 187.835938 265.824219 C 201.683594 278.777344 227.492188 299.769531 247.519531 288.527344 C 267.609375 277.25 262.375 244.527344 257.734375 226.421875 C 275.726562 221.273438 307.769531 209.488281 307.769531 187.207031 C 307.769531 164.800781 275.589844 153.632812 257.214844 148.511719 Z M 254.933594 216.828125 C 251.886719 207.476562 247.773438 197.53125 242.742188 187.257812 C 247.542969 177.226562 251.496094 167.410156 254.460938 158.117188 C 267.929688 161.90625 297.484375 170.558594 297.484375 187.207031 C 297.484375 204.011719 269.125 212.75 254.933594 216.828125 Z M 242.363281 279.898438 C 227.421875 288.285156 205.226562 268.210938 195 258.671875 C 201.785156 251.476562 208.5625 243.113281 215.179688 233.824219 C 226.820312 232.824219 237.8125 231.1875 247.785156 228.953125 C 251.050781 241.757812 257.371094 271.472656 242.363281 279.898438 Z M 132.210938 279.777344 C 117.265625 271.421875 124.097656 242.730469 127.523438 229.398438 C 137.382812 231.515625 148.300781 233.035156 159.96875 233.953125 C 166.625 243.039062 173.601562 251.394531 180.632812 258.710938 C 171.949219 266.855469 147.222656 288.171875 132.210938 279.777344 Z M 77.300781 187.207031 C 77.300781 170.339844 106.679688 161.746094 120.457031 157.96875 C 123.46875 167.472656 127.421875 177.40625 132.191406 187.453125 C 127.359375 197.644531 123.351562 207.738281 120.3125 217.351562 C 107.171875 213.703125 77.300781 204.085938 77.300781 187.207031 Z M 132.050781 95.140625 C 147.054688 86.722656 170.335938 107.230469 180.296875 116.460938 C 173.304688 123.742188 166.390625 132.035156 159.789062 141.070312 C 148.46875 142.085938 137.628906 143.71875 127.664062 145.910156 C 123.925781 131.394531 117.0625 103.554688 132.050781 95.140625 Z M 222.535156 151.90625 C 230.21875 152.847656 237.578125 154.097656 244.488281 155.628906 C 242.414062 162.074219 239.828125 168.816406 236.78125 175.726562 C 232.367188 167.605469 227.628906 159.648438 222.535156 151.90625 Z M 187.507812 123.585938 C 192.25 128.570312 197.003906 134.132812 201.675781 140.171875 C 192.195312 139.734375 182.699219 139.734375 173.222656 140.164062 C 177.898438 134.183594 182.691406 128.628906 187.507812 123.585938 Z M 138.089844 175.71875 C 135.097656 168.832031 132.535156 162.0625 130.441406 155.523438 C 137.308594 154.03125 144.636719 152.8125 152.269531 151.890625 C 147.160156 159.613281 142.429688 167.566406 138.089844 175.71875 Z M 152.488281 223.238281 C 144.601562 222.386719 137.167969 221.230469 130.300781 219.78125 C 132.425781 213.125 135.042969 206.207031 138.101562 199.171875 C 142.5 207.410156 147.304688 215.441406 152.488281 223.238281 Z M 187.792969 251.535156 C 182.917969 246.433594 178.054688 240.792969 173.308594 234.726562 C 182.839844 235.089844 192.394531 235.089844 201.925781 234.675781 C 197.238281 240.855469 192.503906 246.503906 187.792969 251.535156 Z M 236.878906 198.816406 C 240.097656 205.925781 242.8125 212.804688 244.964844 219.347656 C 237.984375 220.894531 230.449219 222.136719 222.507812 223.0625 C 227.636719 215.171875 232.453125 207.089844 236.878906 198.816406 Z M 209.441406 224.269531 C 194.855469 225.28125 180.183594 225.269531 165.59375 224.351562 C 157.304688 212.613281 149.925781 200.265625 143.558594 187.449219 C 149.898438 174.65625 157.222656 162.335938 165.472656 150.613281 C 180.070312 149.542969 194.757812 149.539062 209.355469 150.621094 C 217.535156 162.339844 224.851562 174.628906 231.335938 187.304688 C 224.925781 200.089844 217.5625 212.4375 209.441406 224.269531 Z M 242.207031 94.847656 C 257.214844 103.238281 250.535156 133.050781 247.253906 146.011719 C 237.269531 143.777344 226.421875 142.117188 215.066406 141.082031 C 208.449219 131.949219 201.597656 123.644531 194.714844 116.457031 C 204.804688 107.027344 227.34375 86.535156 242.207031 94.847656 Z M 242.207031 94.847656 "/></g></g></svg>