<svg xmlns="http://www.w3.org/2000/svg" xmlns:xlink="http://www.w3.org/1999/xlink" width="500" zoomAndPan="magnify" viewBox="0 0 375 374.999991" height="500" preserveAspectRatio="xMidYMid meet" version="1.2"><g id="2a08a60dda"><path style=" stroke:none;fill-rule:nonzero;fill:#ffffff;fill-opacity:1;" d="M 155.820312 113.492188 C 163.847656 103.347656 178.964844 98.339844 189.269531 98.082031 C 218.160156 97.527344 230.207031 133.910156 231.132812 148.375 L 244.507812 152.429688 C 241.429688 108.089844 214.152344 84.832031 188.054688 84.832031 C 163.582031 84.820312 140.980469 102.804688 131.875 129.167969 C 119.4375 164.320312 127.597656 198.117188 142.847656 225.160156 C 141.519531 226.917969 140.714844 230.019531 140.980469 232.992188 C 141.242188 241.105469 148.0625 247.867188 156.230469 247.867188 L 156.769531 247.867188 C 165.332031 247.597656 171.882812 240.4375 171.480469 231.910156 C 171.480469 223.792969 164.527344 217.054688 156.367188 217.054688 L 155.820312 217.054688 C 155.285156 217.054688 154.492188 217.054688 153.8125 217.3125 C 142.714844 198.382812 138.027344 178.097656 139.777344 156.214844 C 140.839844 139.714844 146.195312 125.382812 155.820312 113.492188 Z M 155.820312 113.492188 "/><path style=" stroke:none;fill-rule:nonzero;fill:#ffffff;fill-opacity:1;" d="M 91.355469 266.945312 C 100.320312 280.464844 118.652344 289.105469 138.714844 289.105469 C 144.0625 289.105469 149.6875 288.714844 155.167969 287.355469 C 189.957031 280.597656 216.3125 259.507812 231.429688 228.417969 L 231.554688 228.144531 C 239.3125 227.464844 245.332031 220.5625 244.9375 212.3125 C 244.527344 204.0625 237.839844 197.445312 229.6875 197.445312 L 229.144531 197.445312 C 220.722656 197.722656 214.160156 204.882812 214.429688 213.410156 C 214.695312 217.730469 216.445312 221.25 218.839844 223.8125 C 209.480469 242.207031 195.4375 255.714844 174.160156 267.082031 C 159.847656 274.644531 144.730469 277.492188 130.019531 275.464844 C 117.714844 273.714844 108.089844 268.152344 102.195312 259.242188 C 93.375 245.714844 92.570312 231.125 99.917969 216.527344 C 105.285156 205.980469 113.304688 198.277344 118.660156 194.480469 C 117.320312 190.972656 115.714844 185.027344 114.910156 180.570312 C 75.292969 209.222656 79.320312 248.417969 91.355469 266.945312 Z M 91.355469 266.945312 "/><path style=" stroke:none;fill-rule:nonzero;fill:#ffffff;fill-opacity:1;" d="M 292.542969 260.980469 C 300.5625 244.757812 299.902344 217.457031 279.429688 194.0625 L 279.304688 194.332031 C 258.582031 169.722656 228.070312 156.207031 193.277344 156.207031 L 188.722656 156.207031 C 186.464844 151.207031 181.25 148.089844 175.355469 148.089844 L 174.957031 148.089844 C 166.535156 148.089844 159.972656 155.402344 160.25 163.910156 C 160.519531 172.019531 167.339844 178.785156 175.5 178.785156 L 176.160156 178.785156 C 182.1875 178.519531 187.402344 174.722656 189.535156 169.320312 L 194.492188 169.320312 C 215.105469 169.320312 234.625 175.402344 252.429688 187.292969 C 266.0625 196.355469 275.839844 208.25 281.320312 222.445312 C 286.125 234.070312 285.867188 245.429688 280.917969 254.902344 C 273.292969 269.769531 260.445312 277.617188 243.464844 277.617188 C 232.757812 277.617188 222.332031 274.230469 216.972656 271.804688 C 213.769531 274.492188 208.410156 278.957031 204.527344 281.667969 C 216.292969 287.0625 228.207031 290.179688 239.707031 290.179688 C 265.792969 290.179688 285.179688 275.320312 292.542969 260.980469 Z M 292.542969 260.980469 "/></g></svg>