<svg xmlns="http://www.w3.org/2000/svg" xmlns:xlink="http://www.w3.org/1999/xlink" width="500" zoomAndPan="magnify" viewBox="0 0 375 374.999991" height="500" preserveAspectRatio="xMidYMid meet" version="1.2"><g id="ff2c436b44"><path style=" stroke:none;fill-rule:nonzero;fill:#ffffff;fill-opacity:1;" d="M 75 300 L 300 300 L 300 75 L 75 75 Z M 75 300 "/><path style=" stroke:none;fill-rule:nonzero;fill:#000000;fill-opacity:1;" d="M 124.746094 188.238281 L 124.675781 197.457031 L 153.960938 197.457031 L 153.960938 280.671875 L 174.675781 280.671875 L 174.675781 197.457031 L 203.960938 197.457031 L 203.960938 188.421875 C 203.960938 183.421875 203.855469 179.238281 203.710938 179.132812 C 203.605469 178.992188 185.785156 178.921875 164.171875 178.957031 L 124.851562 179.0625 Z M 124.746094 188.238281 "/><path style=" stroke:none;fill-rule:nonzero;fill:#000000;fill-opacity:1;" d="M 256.554688 178.808594 C 262.269531 180.230469 266.628906 182.769531 270.625 186.910156 C 272.691406 189.125 275.769531 193.160156 276.015625 194.125 C 276.085938 194.417969 266.300781 200.980469 260.371094 204.664062 C 260.160156 204.804688 259.304688 203.875 258.339844 202.449219 C 255.449219 198.230469 252.40625 196.410156 247.765625 196.09375 C 240.945312 195.628906 236.550781 199.199219 236.585938 205.164062 C 236.585938 206.914062 236.839844 207.953125 237.554688 209.375 C 239.058594 212.488281 241.84375 214.339844 250.585938 218.128906 C 266.699219 225.054688 273.589844 229.625 277.878906 236.128906 C 282.660156 243.378906 283.730469 254.945312 280.480469 263.550781 C 276.910156 272.910156 268.050781 279.265625 255.589844 281.375 C 251.730469 282.050781 242.589844 281.945312 238.441406 281.199219 C 229.40625 279.589844 220.835938 275.125 215.554688 269.273438 C 213.480469 266.988281 209.445312 261.019531 209.691406 260.589844 C 209.808594 260.449219 210.730469 259.878906 211.765625 259.269531 C 212.769531 258.699219 216.558594 256.519531 220.125 254.445312 L 226.585938 250.703125 L 227.949219 252.695312 C 229.835938 255.589844 233.984375 259.550781 236.480469 260.878906 C 243.664062 264.660156 253.515625 264.121094 258.375 259.773438 C 260.449219 257.875 261.300781 255.914062 261.300781 253.023438 C 261.300781 250.410156 260.984375 249.269531 259.625 247.308594 C 257.875 244.804688 254.304688 242.695312 244.164062 238.308594 C 232.554688 233.308594 227.550781 230.195312 222.980469 225.265625 C 220.335938 222.410156 217.839844 217.839844 216.804688 214.015625 C 215.941406 210.84375 215.730469 202.878906 216.40625 199.664062 C 218.808594 188.449219 227.269531 180.625 239.480469 178.304688 C 243.441406 177.558594 252.664062 177.839844 256.554688 178.808594 Z M 256.554688 178.808594 "/></g></svg>