<svg xmlns="http://www.w3.org/2000/svg" xmlns:xlink="http://www.w3.org/1999/xlink" width="500" zoomAndPan="magnify" viewBox="0 0 375 374.999991" height="500" preserveAspectRatio="xMidYMid meet" version="1.2"><defs><clipPath id="d9ea2938d3"><path d="M 75 115.5 L 300 115.5 L 300 259.5 L 75 259.5 Z M 75 115.5 "/></clipPath></defs><g id="bdca8f5fde"><g clip-rule="nonzero" clip-path="url(#d9ea2938d3)"><path style=" stroke:none;fill-rule:evenodd;fill:#ffffff;fill-opacity:1;" d="M 324.878906 279.167969 L 48.621094 279.167969 C 46.496094 279.167969 44.753906 277.425781 44.753906 275.300781 L 44.753906 113.683594 C 44.753906 100.730469 55.195312 90.097656 68.339844 90.097656 L 305.160156 90.097656 C 318.113281 90.097656 328.746094 100.730469 328.746094 113.683594 L 328.746094 275.300781 C 328.746094 277.425781 327.003906 279.167969 324.878906 279.167969 Z M 52.488281 271.433594 L 321.011719 271.433594 L 321.011719 113.683594 C 321.011719 104.984375 313.859375 97.832031 305.160156 97.832031 L 68.339844 97.832031 C 59.449219 97.832031 52.488281 104.984375 52.488281 113.683594 Z M 52.488281 271.433594 "/></g><path style=" stroke:none;fill-rule:evenodd;fill:#ffffff;fill-opacity:1;" d="M 233.628906 192.363281 C 215.265625 192.363281 197.285156 185.597656 183.945312 173.804688 C 179.5 169.746094 176.019531 166.265625 173.121094 163.171875 C 166.742188 156.601562 163.648438 153.699219 159.203125 153.699219 C 153.59375 153.699219 144.703125 157.953125 127.882812 169.359375 C 126.53125 170.324219 124.597656 170.132812 123.242188 169.167969 C 122.082031 168.199219 121.503906 166.460938 122.082031 164.914062 C 122.664062 163.171875 136.777344 121.800781 174.085938 121.800781 C 177.761719 121.800781 181.433594 122.1875 185.105469 122.960938 C 199.605469 125.863281 217.199219 136.6875 226.285156 145.195312 C 236.53125 155.054688 243.296875 160.851562 251.609375 160.851562 C 257.601562 160.851562 264.753906 157.761719 274.035156 150.800781 C 275.195312 150.027344 276.742188 149.832031 278.09375 150.414062 C 279.449219 151.1875 280.222656 152.539062 280.222656 153.894531 C 280.222656 176.898438 261.46875 192.363281 233.628906 192.363281 Z M 205.019531 247.460938 C 186.652344 247.460938 168.675781 240.695312 155.335938 228.902344 C 150.890625 225.035156 147.410156 221.363281 144.507812 218.269531 C 138.128906 211.695312 135.035156 208.796875 130.589844 208.796875 C 124.984375 208.796875 116.089844 213.242188 99.273438 224.457031 C 97.917969 225.421875 95.984375 225.421875 94.824219 224.457031 C 93.472656 223.296875 92.890625 221.554688 93.472656 220.007812 C 94.050781 218.269531 108.164062 176.898438 145.667969 176.898438 C 149.148438 176.898438 152.820312 177.285156 156.496094 178.058594 C 170.996094 181.152344 188.585938 191.785156 197.671875 200.484375 C 207.917969 210.148438 214.683594 215.949219 222.996094 215.949219 C 228.992188 215.949219 236.144531 212.855469 245.421875 206.089844 C 246.582031 205.125 248.128906 204.929688 249.484375 205.703125 C 250.835938 206.285156 251.609375 207.636719 251.609375 209.183594 C 251.609375 231.996094 232.855469 247.460938 205.019531 247.460938 Z M 205.019531 247.460938 "/></g></svg>